<?xml version="1.0" encoding="UTF-8" standalone="no"?>
<!DOCTYPE svg PUBLIC "-//W3C//DTD SVG 1.1//EN"
 "http://www.w3.org/Graphics/SVG/1.1/DTD/svg11.dtd">
<!-- Generated by graphviz version 15.0.0 (20260523.1842)
 -->
<!-- Title: G Pages: 1 -->
<svg width="856pt" height="256pt"
 viewBox="0.00 0.00 856.00 256.00" xmlns="http://www.w3.org/2000/svg" xmlns:xlink="http://www.w3.org/1999/xlink">
<g id="graph0" class="graph" transform="scale(1 1) rotate(0) translate(25.2 230.35)">
<title>G</title>
<polygon fill="white" stroke="none" points="-25.2,25.2 -25.2,-230.35 831.1,-230.35 831.1,25.2 -25.2,25.2"/>
<text xml:space="preserve" text-anchor="middle" x="402.95" y="-184.05" font-family="Helvetica,sans-Serif" font-size="18.00" fill="#111111">Catalog connectors → normalized product (packages/catalog)</text>
<!-- shop -->
<g id="node1" class="node">
<title>shop</title>
<path fill="white" stroke="#111111" stroke-width="1.4" stroke-dasharray="5,2" d="M171.3,-162.03C171.3,-162.03 12,-162.03 12,-162.03 6,-162.03 0,-156.03 0,-150.03 0,-150.03 0,-128.25 0,-128.25 0,-122.25 6,-116.25 12,-116.25 12,-116.25 171.3,-116.25 171.3,-116.25 177.3,-116.25 183.3,-122.25 183.3,-128.25 183.3,-128.25 183.3,-150.03 183.3,-150.03 183.3,-156.03 177.3,-162.03 171.3,-162.03"/>
<text xml:space="preserve" text-anchor="middle" x="91.65" y="-141.99" font-family="Helvetica,sans-Serif" font-size="12.00" fill="#111111">Shopify Admin API</text>
<text xml:space="preserve" text-anchor="middle" x="91.65" y="-127.74" font-family="Helvetica,sans-Serif" font-size="12.00" fill="#111111">products.json (cursor paging)</text>
</g>
<!-- shopc -->
<g id="node3" class="node">
<title>shopc</title>
<path fill="white" stroke="#111111" stroke-width="1.4" d="M447.85,-162.03C447.85,-162.03 256.3,-162.03 256.3,-162.03 250.3,-162.03 244.3,-156.03 244.3,-150.03 244.3,-150.03 244.3,-128.25 244.3,-128.25 244.3,-122.25 250.3,-116.25 256.3,-116.25 256.3,-116.25 447.85,-116.25 447.85,-116.25 453.85,-116.25 459.85,-122.25 459.85,-128.25 459.85,-128.25 459.85,-150.03 459.85,-150.03 459.85,-156.03 453.85,-162.03 447.85,-162.03"/>
<text xml:space="preserve" text-anchor="middle" x="352.07" y="-141.99" font-family="Helvetica,sans-Serif" font-size="12.00" fill="#111111">ShopifyConnector</text>
<text xml:space="preserve" text-anchor="middle" x="352.07" y="-127.74" font-family="Helvetica,sans-Serif" font-size="12.00" fill="#111111">images · lead variant price · vendor</text>
</g>
<!-- shop&#45;&gt;shopc -->
<g id="edge1" class="edge">
<title>shop&#45;&gt;shopc</title>
<path fill="none" stroke="#111111" stroke-width="1.3" d="M183.76,-139.14C200.04,-139.14 217.2,-139.14 234.09,-139.14"/>
<polygon fill="#111111" stroke="#111111" stroke-width="1.3" points="234.02,-141.94 242.02,-139.14 234.02,-136.34 234.02,-141.94"/>
</g>
<!-- rest -->
<g id="node2" class="node">
<title>rest</title>
<path fill="white" stroke="#111111" stroke-width="1.4" stroke-dasharray="5,2" d="M145.8,-60.03C145.8,-60.03 37.5,-60.03 37.5,-60.03 31.5,-60.03 25.5,-54.03 25.5,-48.03 25.5,-48.03 25.5,-26.25 25.5,-26.25 25.5,-20.25 31.5,-14.25 37.5,-14.25 37.5,-14.25 145.8,-14.25 145.8,-14.25 151.8,-14.25 157.8,-20.25 157.8,-26.25 157.8,-26.25 157.8,-48.03 157.8,-48.03 157.8,-54.03 151.8,-60.03 145.8,-60.03"/>
<text xml:space="preserve" text-anchor="middle" x="91.65" y="-39.99" font-family="Helvetica,sans-Serif" font-size="12.00" fill="#111111">Generic REST feed</text>
<text xml:space="preserve" text-anchor="middle" x="91.65" y="-25.74" font-family="Helvetica,sans-Serif" font-size="12.00" fill="#111111">(HTTPS only)</text>
</g>
<!-- restc -->
<g id="node4" class="node">
<title>restc</title>
<path fill="white" stroke="#111111" stroke-width="1.4" d="M453.85,-74.28C453.85,-74.28 250.3,-74.28 250.3,-74.28 244.3,-74.28 238.3,-68.28 238.3,-62.28 238.3,-62.28 238.3,-12 238.3,-12 238.3,-6 244.3,0 250.3,0 250.3,0 453.85,0 453.85,0 459.85,0 465.85,-6 465.85,-12 465.85,-12 465.85,-62.28 465.85,-62.28 465.85,-68.28 459.85,-74.28 453.85,-74.28"/>
<text xml:space="preserve" text-anchor="middle" x="352.07" y="-54.24" font-family="Helvetica,sans-Serif" font-size="12.00" fill="#111111">GenericRestConnector</text>
<text xml:space="preserve" text-anchor="middle" x="352.07" y="-39.99" font-family="Helvetica,sans-Serif" font-size="12.00" fill="#111111">FieldMapping (dot&#45;path):</text>
<text xml:space="preserve" text-anchor="middle" x="352.07" y="-25.74" font-family="Helvetica,sans-Serif" font-size="12.00" fill="#111111">itemsPath · idPath · titlePath</text>
<text xml:space="preserve" text-anchor="middle" x="352.07" y="-11.49" font-family="Helvetica,sans-Serif" font-size="12.00" fill="#111111">imagePath · pricePath · currencyPath</text>
</g>
<!-- rest&#45;&gt;restc -->
<g id="edge2" class="edge">
<title>rest&#45;&gt;restc</title>
<path fill="none" stroke="#111111" stroke-width="1.3" d="M158.2,-37.14C179.42,-37.14 203.7,-37.14 227.71,-37.14"/>
<polygon fill="#111111" stroke="#111111" stroke-width="1.3" points="227.65,-39.94 235.65,-37.14 227.65,-34.34 227.65,-39.94"/>
</g>
<!-- norm -->
<g id="node5" class="node">
<title>norm</title>
<path fill="#f4f4f4" stroke="#111111" stroke-width="2.4" d="M793.9,-176.15C793.9,-176.15 578.35,-176.15 578.35,-176.15 572.35,-176.15 566.35,-170.15 566.35,-164.15 566.35,-164.15 566.35,-128.12 566.35,-128.12 566.35,-122.12 572.35,-116.12 578.35,-116.12 578.35,-116.12 793.9,-116.12 793.9,-116.12 799.9,-116.12 805.9,-122.12 805.9,-128.12 805.9,-128.12 805.9,-164.15 805.9,-164.15 805.9,-170.15 799.9,-176.15 793.9,-176.15"/>
<text xml:space="preserve" text-anchor="middle" x="686.12" y="-156.11" font-family="Helvetica,sans-Serif" font-size="12.00" fill="#111111">NormalizedProduct</text>
<text xml:space="preserve" text-anchor="middle" x="686.12" y="-141.86" font-family="Helvetica,sans-Serif" font-size="12.00" fill="#111111">id · title · imageRefs[] (HTTPS)</text>
<text xml:space="preserve" text-anchor="middle" x="686.12" y="-127.61" font-family="Helvetica,sans-Serif" font-size="12.00" fill="#111111">price? · currency? · category? · vendor?</text>
</g>
<!-- shopc&#45;&gt;norm -->
<g id="edge3" class="edge">
<title>shopc&#45;&gt;norm</title>
<path fill="none" stroke="#111111" stroke-width="1.3" d="M460.42,-141.4C490.73,-142.04 524.03,-142.74 555.5,-143.41"/>
<polygon fill="#111111" stroke="#111111" stroke-width="1.3" points="555.18,-146.2 563.23,-143.57 555.29,-140.6 555.18,-146.2"/>
</g>
<!-- skip -->
<g id="node6" class="node">
<title>skip</title>
<path fill="#ececec" stroke="#111111" stroke-width="1.2" d="M780.77,-64.03C780.77,-64.03 591.48,-64.03 591.48,-64.03 585.48,-64.03 579.48,-58.03 579.48,-52.03 579.48,-52.03 579.48,-30.25 579.48,-30.25 579.48,-24.25 585.48,-18.25 591.48,-18.25 591.48,-18.25 780.77,-18.25 780.77,-18.25 786.77,-18.25 792.77,-24.25 792.77,-30.25 792.77,-30.25 792.77,-52.03 792.77,-52.03 792.77,-58.03 786.77,-64.03 780.77,-64.03"/>
<text xml:space="preserve" text-anchor="middle" x="686.12" y="-43.99" font-family="Helvetica,sans-Serif" font-size="12.00" fill="#444444">skipped[]</text>
<text xml:space="preserve" text-anchor="middle" x="686.12" y="-29.74" font-family="Helvetica,sans-Serif" font-size="12.00" fill="#444444">(ref + reason — bad rows dropped)</text>
</g>
<!-- shopc&#45;&gt;skip -->
<g id="edge5" class="edge">
<title>shopc&#45;&gt;skip</title>
<path fill="none" stroke="#777777" stroke-width="1.3" stroke-dasharray="5,2" d="M432.61,-115.67C481.92,-101.11 545.35,-82.39 596.3,-67.35"/>
<polygon fill="#777777" stroke="#777777" stroke-width="1.3" points="596.9,-70.1 603.78,-65.15 595.31,-64.73 596.9,-70.1"/>
<text xml:space="preserve" text-anchor="middle" x="516.1" y="-98.51" font-family="Helvetica,sans-Serif" font-size="10.00" fill="#777777">invalid row</text>
</g>
<!-- restc&#45;&gt;norm -->
<g id="edge4" class="edge">
<title>restc&#45;&gt;norm</title>
<path fill="none" stroke="#111111" stroke-width="1.3" d="M466.53,-63.33C505.43,-72.31 539.35,-80.14 539.35,-80.14 539.35,-80.14 572.79,-95.28 607.64,-111.06"/>
<polygon fill="#111111" stroke="#111111" stroke-width="1.3" points="606.27,-113.51 614.71,-114.26 608.58,-108.41 606.27,-113.51"/>
</g>
<!-- restc&#45;&gt;skip -->
<g id="edge6" class="edge">
<title>restc&#45;&gt;skip</title>
<path fill="none" stroke="#777777" stroke-width="1.3" stroke-dasharray="5,2" d="M466.23,-19.33C481.95,-16.86 492.85,-15.14 492.85,-15.14 492.85,-15.14 539.35,-15.14 539.35,-15.14 539.35,-15.14 551.84,-17.37 569.51,-20.52"/>
<polygon fill="#777777" stroke="#777777" stroke-width="1.3" points="568.88,-23.25 577.25,-21.9 569.86,-17.74 568.88,-23.25"/>
<text xml:space="preserve" text-anchor="middle" x="516.1" y="-17.64" font-family="Helvetica,sans-Serif" font-size="10.00" fill="#777777">invalid row</text>
</g>
</g>
</svg>
