<?xml version="1.0" encoding="UTF-8" standalone="no"?>
<!DOCTYPE svg PUBLIC "-//W3C//DTD SVG 1.1//EN"
 "http://www.w3.org/Graphics/SVG/1.1/DTD/svg11.dtd">
<!-- Generated by graphviz version 15.0.0 (20260523.1842)
 -->
<!-- Title: G Pages: 1 -->
<svg width="681pt" height="661pt"
 viewBox="0.00 0.00 681.00 661.00" xmlns="http://www.w3.org/2000/svg" xmlns:xlink="http://www.w3.org/1999/xlink">
<g id="graph0" class="graph" transform="scale(1 1) rotate(0) translate(25.2 636.2)">
<title>G</title>
<polygon fill="white" stroke="none" points="-25.2,25.2 -25.2,-636.2 656.23,-636.2 656.23,25.2 -25.2,25.2"/>
<text xml:space="preserve" text-anchor="middle" x="315.51" y="-589.9" font-family="Helvetica,sans-Serif" font-size="18.00" fill="#111111">Widget state machine — consent fail&#45;closed (state.ts)</text>
<!-- idle -->
<g id="node1" class="node">
<title>idle</title>
<path fill="white" stroke="#111111" stroke-width="1.4" d="M323.02,-582C323.02,-582 293.02,-582 293.02,-582 287.02,-582 281.02,-576 281.02,-570 281.02,-570 281.02,-558 281.02,-558 281.02,-552 287.02,-546 293.02,-546 293.02,-546 323.02,-546 323.02,-546 329.02,-546 335.02,-552 335.02,-558 335.02,-558 335.02,-570 335.02,-570 335.02,-576 329.02,-582 323.02,-582"/>
<text xml:space="preserve" text-anchor="middle" x="308.02" y="-559.73" font-family="Helvetica,sans-Serif" font-size="12.00" fill="#111111">idle</text>
</g>
<!-- consent -->
<g id="node2" class="node">
<title>consent</title>
<path fill="white" stroke="#111111" stroke-width="1.4" d="M331.42,-480C331.42,-480 284.62,-480 284.62,-480 278.62,-480 272.62,-474 272.62,-468 272.62,-468 272.62,-456 272.62,-456 272.62,-450 278.62,-444 284.62,-444 284.62,-444 331.42,-444 331.42,-444 337.42,-444 343.42,-450 343.42,-456 343.42,-456 343.42,-468 343.42,-468 343.42,-474 337.42,-480 331.42,-480"/>
<text xml:space="preserve" text-anchor="middle" x="308.02" y="-457.73" font-family="Helvetica,sans-Serif" font-size="12.00" fill="#111111">consent</text>
</g>
<!-- idle&#45;&gt;consent -->
<g id="edge1" class="edge">
<title>idle&#45;&gt;consent</title>
<path fill="none" stroke="#111111" stroke-width="1.3" d="M291.38,-545.36C279.84,-533.12 266.52,-519 266.52,-519 266.52,-519 266.52,-507 266.52,-507 266.52,-507 275.31,-497.68 284.8,-487.62"/>
<polygon fill="#111111" stroke="#111111" stroke-width="1.3" points="286.58,-489.82 290.03,-482.07 282.51,-485.97 286.58,-489.82"/>
<text xml:space="preserve" text-anchor="middle" x="280.77" y="-509.5" font-family="Helvetica,sans-Serif" font-size="10.00" fill="#444444">OPEN</text>
</g>
<!-- consent&#45;&gt;idle -->
<g id="edge3" class="edge">
<title>consent&#45;&gt;idle</title>
<path fill="none" stroke="#777777" stroke-width="1.3" stroke-dasharray="5,2" d="M308.02,-480.55C308.02,-495.85 308.02,-518.26 308.02,-535.87"/>
<polygon fill="#777777" stroke="#777777" stroke-width="1.3" points="305.23,-535.61 308.03,-543.61 310.83,-535.61 305.23,-535.61"/>
<text xml:space="preserve" text-anchor="middle" x="378.9" y="-509.5" font-family="Helvetica,sans-Serif" font-size="10.00" fill="#777777">CONSENT_DECLINE / CLOSE</text>
</g>
<!-- upload -->
<g id="node3" class="node">
<title>upload</title>
<path fill="white" stroke="#111111" stroke-width="1.4" d="M328.8,-354C328.8,-354 287.25,-354 287.25,-354 281.25,-354 275.25,-348 275.25,-342 275.25,-342 275.25,-330 275.25,-330 275.25,-324 281.25,-318 287.25,-318 287.25,-318 328.8,-318 328.8,-318 334.8,-318 340.8,-324 340.8,-330 340.8,-330 340.8,-342 340.8,-342 340.8,-348 334.8,-354 328.8,-354"/>
<text xml:space="preserve" text-anchor="middle" x="308.02" y="-331.73" font-family="Helvetica,sans-Serif" font-size="12.00" fill="#111111">upload</text>
</g>
<!-- consent&#45;&gt;upload -->
<g id="edge2" class="edge">
<title>consent&#45;&gt;upload</title>
<path fill="none" stroke="#111111" stroke-width="1.3" d="M308.02,-443.5C308.02,-422.91 308.02,-388.49 308.02,-364.37"/>
<polygon fill="#111111" stroke="#111111" stroke-width="1.3" points="310.83,-364.38 308.03,-356.38 305.23,-364.38 310.83,-364.38"/>
<text xml:space="preserve" text-anchor="middle" x="356.02" y="-407.5" font-family="Helvetica,sans-Serif" font-size="10.00" fill="#111111">CONSENT_ACCEPT</text>
<text xml:space="preserve" text-anchor="middle" x="356.02" y="-395.5" font-family="Helvetica,sans-Serif" font-size="10.00" fill="#111111">(fail&#45;closed: sole path,</text>
<text xml:space="preserve" text-anchor="middle" x="356.02" y="-383.5" font-family="Helvetica,sans-Serif" font-size="10.00" fill="#111111">sets consentGiven)</text>
</g>
<!-- uploading -->
<g id="node4" class="node">
<title>uploading</title>
<path fill="white" stroke="#111111" stroke-width="1.4" d="M277.05,-252C277.05,-252 219,-252 219,-252 213,-252 207,-246 207,-240 207,-240 207,-228 207,-228 207,-222 213,-216 219,-216 219,-216 277.05,-216 277.05,-216 283.05,-216 289.05,-222 289.05,-228 289.05,-228 289.05,-240 289.05,-240 289.05,-246 283.05,-252 277.05,-252"/>
<text xml:space="preserve" text-anchor="middle" x="248.02" y="-229.72" font-family="Helvetica,sans-Serif" font-size="12.00" fill="#111111">uploading</text>
</g>
<!-- upload&#45;&gt;uploading -->
<g id="edge4" class="edge">
<title>upload&#45;&gt;uploading</title>
<path fill="none" stroke="#111111" stroke-width="1.3" d="M284.47,-317.36C268.12,-305.12 249.27,-291 249.27,-291 249.27,-291 248.95,-276.38 248.63,-262.08"/>
<polygon fill="#111111" stroke="#111111" stroke-width="1.3" points="251.44,-262.31 248.46,-254.38 245.84,-262.44 251.44,-262.31"/>
<text xml:space="preserve" text-anchor="middle" x="293.15" y="-281.5" font-family="Helvetica,sans-Serif" font-size="10.00" fill="#444444">SUBMIT (photo set)</text>
</g>
<!-- error -->
<g id="node7" class="node">
<title>error</title>
<path fill="#ececec" stroke="#111111" stroke-width="1.4" d="M263.02,-36C263.02,-36 233.02,-36 233.02,-36 227.02,-36 221.02,-30 221.02,-24 221.02,-24 221.02,-12 221.02,-12 221.02,-6 227.02,0 233.02,0 233.02,0 263.02,0 263.02,0 269.02,0 275.02,-6 275.02,-12 275.02,-12 275.02,-24 275.02,-24 275.02,-30 269.02,-36 263.02,-36"/>
<text xml:space="preserve" text-anchor="middle" x="248.02" y="-13.72" font-family="Helvetica,sans-Serif" font-size="12.00" fill="#444444">error</text>
</g>
<!-- upload&#45;&gt;error -->
<g id="edge5" class="edge">
<title>upload&#45;&gt;error</title>
<path fill="none" stroke="#777777" stroke-width="1.3" stroke-dasharray="5,2" d="M322.06,-317.36C331.8,-305.12 343.02,-291 343.02,-291 343.02,-291 343.02,-279 343.02,-279 343.02,-279 317.02,-102 317.02,-102 317.02,-102 289.25,-68.59 268.94,-44.16"/>
<polygon fill="#777777" stroke="#777777" stroke-width="1.3" points="271.18,-42.48 263.92,-38.12 266.88,-46.06 271.18,-42.48"/>
<text xml:space="preserve" text-anchor="middle" x="369.85" y="-173.5" font-family="Helvetica,sans-Serif" font-size="10.00" fill="#777777">FILE_REJECTED</text>
</g>
<!-- processing -->
<g id="node5" class="node">
<title>processing</title>
<path fill="white" stroke="#111111" stroke-width="1.4" d="M155.67,-138C155.67,-138 92.37,-138 92.37,-138 86.37,-138 80.37,-132 80.37,-126 80.37,-126 80.37,-114 80.37,-114 80.37,-108 86.37,-102 92.37,-102 92.37,-102 155.67,-102 155.67,-102 161.67,-102 167.67,-108 167.67,-114 167.67,-114 167.67,-126 167.67,-126 167.67,-132 161.67,-138 155.67,-138"/>
<text xml:space="preserve" text-anchor="middle" x="124.02" y="-115.72" font-family="Helvetica,sans-Serif" font-size="12.00" fill="#111111">processing</text>
</g>
<!-- uploading&#45;&gt;processing -->
<g id="edge6" class="edge">
<title>uploading&#45;&gt;processing</title>
<path fill="none" stroke="#111111" stroke-width="1.3" d="M206.42,-215.36C177.56,-203.12 144.27,-189 144.27,-189 144.27,-189 137.72,-167 132.07,-148.02"/>
<polygon fill="#111111" stroke="#111111" stroke-width="1.3" points="134.77,-147.27 129.8,-140.4 129.4,-148.86 134.77,-147.27"/>
<text xml:space="preserve" text-anchor="middle" x="180.65" y="-173.5" font-family="Helvetica,sans-Serif" font-size="10.00" fill="#444444">JOB_CREATED</text>
</g>
<!-- uploading&#45;&gt;error -->
<g id="edge7" class="edge">
<title>uploading&#45;&gt;error</title>
<path fill="none" stroke="#777777" stroke-width="1.3" stroke-dasharray="5,2" d="M248.02,-215.49C248.02,-178.24 248.02,-90.95 248.02,-46.32"/>
<polygon fill="#777777" stroke="#777777" stroke-width="1.3" points="250.83,-46.42 248.03,-38.42 245.23,-46.42 250.83,-46.42"/>
<text xml:space="preserve" text-anchor="middle" x="277.65" y="-116.5" font-family="Helvetica,sans-Serif" font-size="10.00" fill="#777777">JOB_FAILED</text>
</g>
<!-- result -->
<g id="node6" class="node">
<title>result</title>
<path fill="#f4f4f4" stroke="#111111" stroke-width="2.4" d="M46.05,-36C46.05,-36 12,-36 12,-36 6,-36 0,-30 0,-24 0,-24 0,-12 0,-12 0,-6 6,0 12,0 12,0 46.05,0 46.05,0 52.05,0 58.05,-6 58.05,-12 58.05,-12 58.05,-24 58.05,-24 58.05,-30 52.05,-36 46.05,-36"/>
<text xml:space="preserve" text-anchor="middle" x="29.02" y="-13.72" font-family="Helvetica,sans-Serif" font-size="12.00" fill="#111111">result</text>
</g>
<!-- processing&#45;&gt;result -->
<g id="edge8" class="edge">
<title>processing&#45;&gt;result</title>
<path fill="none" stroke="#111111" stroke-width="1.3" d="M83.83,-101.36C55.94,-89.12 23.77,-75 23.77,-75 23.77,-75 23.77,-63 23.77,-63 23.77,-63 24.66,-55.6 25.7,-46.86"/>
<polygon fill="#111111" stroke="#111111" stroke-width="1.3" points="28.46,-47.38 26.63,-39.1 22.9,-46.72 28.46,-47.38"/>
<text xml:space="preserve" text-anchor="middle" x="68.4" y="-65.5" font-family="Helvetica,sans-Serif" font-size="10.00" fill="#444444">JOB_SUCCEEDED</text>
</g>
<!-- processing&#45;&gt;error -->
<g id="edge9" class="edge">
<title>processing&#45;&gt;error</title>
<path fill="none" stroke="#777777" stroke-width="1.3" stroke-dasharray="5,2" d="M134.52,-101.59C144.43,-85.15 157.77,-63 157.77,-63 157.77,-63 186.69,-48.9 211.79,-36.66"/>
<polygon fill="#777777" stroke="#777777" stroke-width="1.3" points="212.72,-39.33 218.69,-33.3 210.27,-34.29 212.72,-39.33"/>
<text xml:space="preserve" text-anchor="middle" x="187.4" y="-65.5" font-family="Helvetica,sans-Serif" font-size="10.00" fill="#777777">JOB_FAILED</text>
</g>
<!-- result&#45;&gt;upload -->
<g id="edge10" class="edge">
<title>result&#45;&gt;upload</title>
<path fill="none" stroke="#777777" stroke-width="1.3" stroke-dasharray="5,2" d="M59.1,-25.68C114.49,-37.99 227.02,-63 227.02,-63 227.02,-63 317.02,-102 317.02,-102 317.02,-102 420.02,-165 420.02,-165 420.02,-165 420.02,-189 420.02,-189 420.02,-189 374.02,-291 374.02,-291 374.02,-291 358.67,-301.24 342.77,-311.83"/>
<polygon fill="#777777" stroke="#777777" stroke-width="1.3" points="341.23,-309.5 336.13,-316.27 344.34,-314.16 341.23,-309.5"/>
<text xml:space="preserve" text-anchor="middle" x="436.9" y="-173.5" font-family="Helvetica,sans-Serif" font-size="10.00" fill="#777777">RETRY</text>
</g>
<!-- error&#45;&gt;upload -->
<g id="edge11" class="edge">
<title>error&#45;&gt;upload</title>
<path fill="none" stroke="#777777" stroke-width="1.3" stroke-dasharray="5,2" d="M275.68,-24.13C338.19,-35.74 485.02,-63 485.02,-63 485.02,-63 523.02,-102 523.02,-102 523.02,-102 529.02,-165 529.02,-165 529.02,-165 529.02,-189 529.02,-189 529.02,-189 501.02,-252 501.02,-252 501.02,-252 473.02,-291 473.02,-291 473.02,-291 399.73,-310.55 350.84,-323.58"/>
<polygon fill="#777777" stroke="#777777" stroke-width="1.3" points="350.32,-320.82 343.32,-325.59 351.77,-326.23 350.32,-320.82"/>
<text xml:space="preserve" text-anchor="middle" x="580.02" y="-179.5" font-family="Helvetica,sans-Serif" font-size="10.00" fill="#777777">RETRY (consent held)</text>
<text xml:space="preserve" text-anchor="middle" x="580.02" y="-167.5" font-family="Helvetica,sans-Serif" font-size="10.00" fill="#777777">else → idle (fail&#45;closed)</text>
</g>
</g>
</svg>
