<?xml version="1.0" encoding="UTF-8" standalone="no"?>
<!DOCTYPE svg PUBLIC "-//W3C//DTD SVG 1.1//EN"
 "http://www.w3.org/Graphics/SVG/1.1/DTD/svg11.dtd">
<!-- Generated by graphviz version 15.0.0 (20260523.1842)
 -->
<!-- Title: G Pages: 1 -->
<svg width="612pt" height="369pt"
 viewBox="0.00 0.00 612.00 369.00" xmlns="http://www.w3.org/2000/svg" xmlns:xlink="http://www.w3.org/1999/xlink">
<g id="graph0" class="graph" transform="scale(1 1) rotate(0) translate(25.2 344.07)">
<title>G</title>
<polygon fill="white" stroke="none" points="-25.2,25.2 -25.2,-344.07 586.75,-344.07 586.75,25.2 -25.2,25.2"/>
<text xml:space="preserve" text-anchor="middle" x="280.77" y="-297.77" font-family="Helvetica,sans-Serif" font-size="18.00" fill="#111111">inference&#45;py backend selection (factory.py)</text>
<!-- cfg -->
<g id="node1" class="node">
<title>cfg</title>
<path fill="white" stroke="#111111" stroke-width="1.4" stroke-dasharray="5,2" d="M301.55,-289.87C301.55,-289.87 187.25,-289.87 187.25,-289.87 181.25,-289.87 175.25,-283.87 175.25,-277.87 175.25,-277.87 175.25,-256.09 175.25,-256.09 175.25,-250.09 181.25,-244.09 187.25,-244.09 187.25,-244.09 301.55,-244.09 301.55,-244.09 307.55,-244.09 313.55,-250.09 313.55,-256.09 313.55,-256.09 313.55,-277.87 313.55,-277.87 313.55,-283.87 307.55,-289.87 301.55,-289.87"/>
<text xml:space="preserve" text-anchor="middle" x="244.4" y="-269.83" font-family="Helvetica,sans-Serif" font-size="12.00" fill="#111111">settings.backend</text>
<text xml:space="preserve" text-anchor="middle" x="244.4" y="-255.58" font-family="Helvetica,sans-Serif" font-size="12.00" fill="#111111">(app.config.Settings)</text>
</g>
<!-- sw -->
<g id="node2" class="node">
<title>sw</title>
<path fill="#f4f4f4" stroke="#111111" stroke-width="2" d="M232.67,-186.54C232.67,-186.54 111.08,-160.11 111.08,-160.11 105.21,-158.83 105.21,-156.29 111.08,-155.01 111.08,-155.01 232.67,-128.58 232.67,-128.58 238.54,-127.3 250.26,-127.3 256.13,-128.58 256.13,-128.58 377.72,-155.01 377.72,-155.01 383.59,-156.29 383.59,-158.83 377.72,-160.11 377.72,-160.11 256.13,-186.54 256.13,-186.54 250.26,-187.82 238.54,-187.82 232.67,-186.54"/>
<text xml:space="preserve" text-anchor="middle" x="244.4" y="-153.28" font-family="Helvetica,sans-Serif" font-size="12.00" fill="#111111">build_backend(name)</text>
</g>
<!-- cfg&#45;&gt;sw -->
<g id="edge1" class="edge">
<title>cfg&#45;&gt;sw</title>
<path fill="none" stroke="#111111" stroke-width="1.3" d="M244.4,-243.46C244.4,-230.86 244.4,-214.77 244.4,-199.98"/>
<polygon fill="#111111" stroke="#111111" stroke-width="1.3" points="247.2,-199.98 244.4,-191.98 241.6,-199.98 247.2,-199.98"/>
</g>
<!-- mock -->
<g id="node3" class="node">
<title>mock</title>
<path fill="#f4f4f4" stroke="#111111" stroke-width="2.4" d="M112.8,-52.91C112.8,-52.91 12,-52.91 12,-52.91 6,-52.91 0,-46.91 0,-40.91 0,-40.91 0,-19.12 0,-19.12 0,-13.12 6,-7.12 12,-7.12 12,-7.12 112.8,-7.12 112.8,-7.12 118.8,-7.12 124.8,-13.12 124.8,-19.12 124.8,-19.12 124.8,-40.91 124.8,-40.91 124.8,-46.91 118.8,-52.91 112.8,-52.91"/>
<text xml:space="preserve" text-anchor="middle" x="62.4" y="-32.87" font-family="Helvetica,sans-Serif" font-size="12.00" fill="#111111">MockBackend</text>
<text xml:space="preserve" text-anchor="middle" x="62.4" y="-18.62" font-family="Helvetica,sans-Serif" font-size="12.00" fill="#111111">default · torch&#45;free</text>
</g>
<!-- sw&#45;&gt;mock -->
<g id="edge2" class="edge">
<title>sw&#45;&gt;mock</title>
<path fill="none" stroke="#111111" stroke-width="1.3" d="M209.74,-132.65C179.5,-111.79 135.59,-81.5 103.57,-59.42"/>
<polygon fill="#111111" stroke="#111111" stroke-width="1.3" points="105.5,-57.34 97.32,-55.11 102.32,-61.95 105.5,-57.34"/>
<text xml:space="preserve" text-anchor="middle" x="193.73" y="-89.53" font-family="Helvetica,sans-Serif" font-size="10.00" fill="#444444">&quot;mock&quot; (default)</text>
</g>
<!-- leffa -->
<g id="node4" class="node">
<title>leffa</title>
<path fill="white" stroke="#111111" stroke-width="1.4" d="M311.67,-52.91C311.67,-52.91 177.12,-52.91 177.12,-52.91 171.12,-52.91 165.12,-46.91 165.12,-40.91 165.12,-40.91 165.12,-19.12 165.12,-19.12 165.12,-13.12 171.12,-7.12 177.12,-7.12 177.12,-7.12 311.67,-7.12 311.67,-7.12 317.67,-7.12 323.67,-13.12 323.67,-19.12 323.67,-19.12 323.67,-40.91 323.67,-40.91 323.67,-46.91 317.67,-52.91 311.67,-52.91"/>
<text xml:space="preserve" text-anchor="middle" x="244.4" y="-32.87" font-family="Helvetica,sans-Serif" font-size="12.00" fill="#111111">LeffaBackend</text>
<text xml:space="preserve" text-anchor="middle" x="244.4" y="-18.62" font-family="Helvetica,sans-Serif" font-size="12.00" fill="#111111">lazy import · model extra</text>
</g>
<!-- sw&#45;&gt;leffa -->
<g id="edge3" class="edge">
<title>sw&#45;&gt;leffa</title>
<path fill="none" stroke="#111111" stroke-width="1.3" d="M244.4,-125.2C244.4,-106.24 244.4,-82.13 244.4,-63.05"/>
<polygon fill="#111111" stroke="#111111" stroke-width="1.3" points="247.2,-63.27 244.4,-55.27 241.6,-63.27 247.2,-63.27"/>
<text xml:space="preserve" text-anchor="middle" x="257.15" y="-89.53" font-family="Helvetica,sans-Serif" font-size="10.00" fill="#444444">&quot;leffa&quot;</text>
</g>
<!-- err -->
<g id="node5" class="node">
<title>err</title>
<path fill="#ececec" stroke="#111111" stroke-width="1.2" d="M549.55,-60.03C549.55,-60.03 375.25,-60.03 375.25,-60.03 369.25,-60.03 363.25,-54.03 363.25,-48.03 363.25,-48.03 363.25,-12 363.25,-12 363.25,-6 369.25,0 375.25,0 375.25,0 549.55,0 549.55,0 555.55,0 561.55,-6 561.55,-12 561.55,-12 561.55,-48.03 561.55,-48.03 561.55,-54.03 555.55,-60.03 549.55,-60.03"/>
<text xml:space="preserve" text-anchor="middle" x="462.4" y="-39.99" font-family="Helvetica,sans-Serif" font-size="12.00" fill="#444444">ValueError</text>
<text xml:space="preserve" text-anchor="middle" x="462.4" y="-25.74" font-family="Helvetica,sans-Serif" font-size="12.00" fill="#444444">&quot;unknown inference backend&quot;</text>
<text xml:space="preserve" text-anchor="middle" x="462.4" y="-11.49" font-family="Helvetica,sans-Serif" font-size="12.00" fill="#444444">(fail&#45;closed — no silent fallback)</text>
</g>
<!-- sw&#45;&gt;err -->
<g id="edge4" class="edge">
<title>sw&#45;&gt;err</title>
<path fill="none" stroke="#777777" stroke-width="1.3" stroke-dasharray="5,2" d="M284.13,-133.68C317.24,-114.61 364.91,-87.16 402.63,-65.44"/>
<polygon fill="#777777" stroke="#777777" stroke-width="1.3" points="403.77,-68.01 409.3,-61.59 400.97,-63.16 403.77,-68.01"/>
<text xml:space="preserve" text-anchor="middle" x="380.94" y="-89.53" font-family="Helvetica,sans-Serif" font-size="10.00" fill="#777777">otherwise</text>
</g>
</g>
</svg>
